{"title":"18+ Sam 2016 English Movies HDRip XviD AAC New +Sample ~ ☻rDX☻","uid":15909169,"size":739387471,"categoryP":"video","categoryS":"movies","magnet":"?xt=urn:btih:f306c43db95525f0eb5f60a28187817332f5b882&amp;dn=18%2B+Sam+2016+English+Movies+HDRip+XviD+AAC+New+%2BSample+%7E+%E2%98%BBrDX%E2%98%BB&amp;tr=udp%3A%2F%2Ftracker.leechers-paradise.org%3A6969&amp;tr=udp%3A%2F%2Fzer0day.ch%3A1337&amp;tr=udp%3A%2F%2Fopen.demonii.com%3A1337&amp;tr=udp%3A%2F%2Ftracker.coppersurfer.tk%3A6969&amp;tr=udp%3A%2F%2Fexodus.desync.com%3A6969","seeders":7,"leechers":19,"uploader":"basicssom","files":2,"time":1475086602,"description":"----------------------------------------------------------------\r\n18+ Sam 2016 English Movies HDRip XviD AAC New Source with Sample ☻rDX☻\r\n\r\nSCREEN SHOTS &amp; POSTER:\r\n  \nhttp://postimage.co.nr/2016/10/discount/index.htm  \nhttp://postimage.co.nr/2016/10/discount/1.html  \nhttp://postimage.co.nr/2016/10/discount/2.html  \nhttp://postimage.co.nr/2016/10/discount/3.html  \nhttp://postimage.co.nr/2016/10/discount/4.html  \nhttp://postimage.co.nr/2016/10/discount/5.html  \nhttp://postimage.co.nr/2016/10/discount/6.html  \nhttp://postimage.co.nr/2016/10/discount/7.html  \nhttp://postimage.co.nr/2016/10/discount/8.html  \nhttp://postimage.co.nr/2016/10/discount/9.html  \nhttp://postimage.co.nr/2016/10/discount/10.html\r\n\r\nFormat                                   : Matroska\r\nFormat version                           : Version 4 / Version 2\r\nFile size                                : 698 MiB\r\nDuration                                 : 1 h 43 min\r\nOverall bit rate mode                    : Constant\r\nOverall bit rate                         : 944 kb/s\r\nMovie name                               : Sam 2016 English Movies HDRip XviD AAC New Source ☻rDX☻\r\n\r\nVideo\r\nID                                       : 2\r\nFormat                                   : AVC\r\nFormat/Info                              : Advanced Video Codec\r\nFormat profile                           :   \r\nFormat settings, CABAC                   : Yes\r\nFormat settings, ReFrames                : 2 frames\r\nFormat settings, GOP                     : M=1, N=12\r\nCodec ID                                 : V_MPEG4/ISO/AVC\r\nDuration                                 : 1 h 43 min\r\nBit rate mode                            : Constant\r\nBit rate                                 : 561 kb/s\r\nWidth                                    : 720 pixels\r\nHeight                                   : 384 pixels\r\nDisplay aspect ratio                     : 1.85:1\r\nFrame rate mode                          : Constant\r\nFrame rate                               : 23.976 FPS\r\nColor space                              : YUV\r\nChroma subsampling                       : 4:2:0\r\nBit depth                                : 8 bits\r\nScan type                                : Progressive\r\nBits/(Pixel*Frame)                       : 0.085\r\nStream size                              : 400 MiB (57%)\r\nTitle                                    : ☻rDX☻\r\nDefault                                  : Yes\r\nForced                                   : No\r\n\r\nAudio\r\nID                                       : 1\r\nFormat                                   : AC-3\r\nFormat/Info                              : Audio Coding 3\r\nMode extension                           : CM (complete main)\r\nFormat settings, Endianness              : Big\r\nCodec ID                                 : A_AC3\r\nDuration                                 : 1 h 43 min\r\nBit rate mode                            : Constant\r\nBit rate                                 : 384 kb/s\r\nChannel(s)                               : 6 channels\r\nChannel positions                        : Front: L C R, Side: L R, LFE\r\nSampling rate                            : 48.0 kHz\r\nFrame rate                               : 31.250 FPS (1536 spf)\r\nCompression mode                         : Lossy\r\nStream size                              : 284 MiB (41%)\r\nTitle                                    : ☻rDX☻\r\nDefault                                  : Yes\r\nForced                                   : No\r\n\r\nIMDB \nhttp://www.imdb.com/title/tt1309379/","torrent":{"xt":"urn:btih:f306c43db95525f0eb5f60a28187817332f5b882","amp;dn":"18%2B+Sam+2016+English+Movies+HDRip+XviD+AAC+New+%2BSample+%7E+%E2%98%BBrDX%E2%98%BB","amp;tr":["udp%3A%2F%2Ftracker.leechers-paradise.org%3A6969","udp%3A%2F%2Fzer0day.ch%3A1337","udp%3A%2F%2Fopen.demonii.com%3A1337","udp%3A%2F%2Ftracker.coppersurfer.tk%3A6969","udp%3A%2F%2Fexodus.desync.com%3A6969"],"infoHash":"f306c43db95525f0eb5f60a28187817332f5b882","infoHashBuffer":{"type":"Buffer","data":[243,6,196,61,185,85,37,240,235,95,96,162,129,135,129,115,50,245,184,130]},"announce":[],"urlList":[]}}